<?xml version="1.0" encoding="UTF-8" standalone="no"?>
<!DOCTYPE svg PUBLIC "-//W3C//DTD SVG 1.1//EN" "http://www.w3.org/Graphics/SVG/1.1/DTD/svg11.dtd">
<svg width="100%" height="100%" viewBox="0 0 1060 161" version="1.1" xmlns="http://www.w3.org/2000/svg" xmlns:xlink="http://www.w3.org/1999/xlink" xml:space="preserve" xmlns:serif="http://www.serif.com/" style="fill-rule:evenodd;clip-rule:evenodd;stroke-linecap:round;stroke-linejoin:round;">
    <g transform="matrix(1,0,0,1,-5.4774,-3.91667)">
        <g transform="matrix(0.203334,0,0,0.203334,1.76214,3.91667)">
            <path d="M615.186,0C657.383,0 696.375,22.512 717.473,59.055C760.495,133.572 834.052,260.976 877.074,335.493C898.173,372.036 898.173,417.06 877.074,453.603C834.052,528.12 760.495,655.524 717.473,730.041C696.375,766.585 657.383,789.096 615.186,789.096L295.983,789.096C253.787,789.096 214.795,766.585 193.697,730.041C150.674,655.524 77.118,528.12 34.095,453.603C12.997,417.06 12.997,372.036 34.095,335.493C77.118,260.976 150.674,133.572 193.697,59.055C214.795,22.512 253.787,0 295.983,0L615.186,0Z" style="fill:rgb(28,187,134);"/>
        </g>
        <g transform="matrix(1,0,0,1,-4.32274,2.43525)">
            <g transform="matrix(113.955,0,0,113.955,210.234,96.7894)">
                <path d="M0.283,-0.701C0.387,-0.701 0.467,-0.683 0.522,-0.646C0.577,-0.608 0.605,-0.551 0.605,-0.473C0.605,-0.424 0.594,-0.385 0.572,-0.355C0.549,-0.324 0.517,-0.3 0.475,-0.283C0.489,-0.266 0.504,-0.246 0.519,-0.224C0.534,-0.201 0.55,-0.178 0.565,-0.154C0.58,-0.129 0.594,-0.104 0.608,-0.078C0.622,-0.051 0.635,-0.025 0.647,-0L0.472,-0C0.459,-0.023 0.447,-0.046 0.434,-0.069C0.421,-0.092 0.407,-0.115 0.394,-0.137C0.38,-0.159 0.366,-0.18 0.353,-0.2C0.34,-0.219 0.326,-0.237 0.313,-0.253L0.236,-0.253L0.236,-0L0.08,-0L0.08,-0.683C0.114,-0.69 0.149,-0.694 0.186,-0.697C0.222,-0.7 0.254,-0.701 0.283,-0.701ZM0.292,-0.568C0.281,-0.568 0.271,-0.568 0.262,-0.567C0.253,-0.566 0.244,-0.566 0.236,-0.565L0.236,-0.377L0.28,-0.377C0.339,-0.377 0.381,-0.384 0.406,-0.399C0.431,-0.414 0.444,-0.439 0.444,-0.474C0.444,-0.508 0.431,-0.532 0.406,-0.547C0.38,-0.561 0.342,-0.568 0.292,-0.568Z" style="fill-rule:nonzero;"/>
            </g>
            <g transform="matrix(113.955,0,0,113.955,283.393,96.7894)">
                <path d="M0.562,-0.264C0.562,-0.223 0.556,-0.185 0.544,-0.151C0.532,-0.116 0.515,-0.087 0.492,-0.063C0.469,-0.038 0.442,-0.019 0.411,-0.006C0.379,0.007 0.343,0.014 0.304,0.014C0.265,0.014 0.23,0.007 0.199,-0.006C0.167,-0.019 0.14,-0.038 0.117,-0.063C0.094,-0.087 0.077,-0.116 0.064,-0.151C0.051,-0.185 0.045,-0.223 0.045,-0.264C0.045,-0.305 0.051,-0.343 0.065,-0.377C0.078,-0.411 0.096,-0.44 0.119,-0.464C0.141,-0.488 0.169,-0.507 0.201,-0.52C0.232,-0.533 0.267,-0.54 0.304,-0.54C0.342,-0.54 0.377,-0.533 0.409,-0.52C0.44,-0.507 0.467,-0.488 0.49,-0.464C0.513,-0.44 0.53,-0.411 0.543,-0.377C0.556,-0.343 0.562,-0.305 0.562,-0.264ZM0.41,-0.264C0.41,-0.31 0.401,-0.346 0.383,-0.373C0.364,-0.399 0.338,-0.412 0.304,-0.412C0.27,-0.412 0.244,-0.399 0.225,-0.373C0.206,-0.346 0.197,-0.31 0.197,-0.264C0.197,-0.218 0.206,-0.182 0.225,-0.155C0.244,-0.128 0.27,-0.114 0.304,-0.114C0.338,-0.114 0.364,-0.128 0.383,-0.155C0.401,-0.182 0.41,-0.218 0.41,-0.264Z" style="fill-rule:nonzero;"/>
            </g>
            <g transform="matrix(113.955,0,0,113.955,352.563,96.7894)">
                <path d="M0.045,-0.263C0.045,-0.301 0.051,-0.337 0.064,-0.371C0.076,-0.404 0.094,-0.434 0.117,-0.459C0.14,-0.484 0.169,-0.503 0.202,-0.518C0.235,-0.533 0.273,-0.54 0.316,-0.54C0.344,-0.54 0.37,-0.538 0.393,-0.533C0.416,-0.528 0.439,-0.52 0.461,-0.511L0.43,-0.392C0.416,-0.397 0.401,-0.402 0.384,-0.406C0.367,-0.41 0.349,-0.412 0.328,-0.412C0.284,-0.412 0.251,-0.398 0.23,-0.371C0.208,-0.344 0.197,-0.308 0.197,-0.263C0.197,-0.216 0.207,-0.179 0.228,-0.153C0.248,-0.127 0.283,-0.114 0.334,-0.114C0.352,-0.114 0.371,-0.116 0.392,-0.119C0.413,-0.122 0.432,-0.128 0.449,-0.135L0.47,-0.013C0.453,-0.006 0.431,0.001 0.405,0.006C0.379,0.011 0.35,0.014 0.319,0.014C0.271,0.014 0.23,0.007 0.195,-0.008C0.16,-0.022 0.132,-0.041 0.11,-0.066C0.087,-0.091 0.071,-0.12 0.061,-0.154C0.05,-0.187 0.045,-0.224 0.045,-0.263Z" style="fill-rule:nonzero;"/>
            </g>
            <g transform="matrix(113.955,0,0,113.955,409.541,96.7894)">
                <path d="M0.219,-0.336C0.234,-0.352 0.249,-0.369 0.265,-0.386C0.28,-0.403 0.295,-0.421 0.31,-0.438C0.325,-0.455 0.339,-0.471 0.352,-0.486C0.365,-0.501 0.376,-0.515 0.385,-0.526L0.562,-0.526C0.527,-0.485 0.492,-0.447 0.459,-0.41C0.425,-0.373 0.388,-0.334 0.348,-0.295C0.368,-0.277 0.389,-0.256 0.41,-0.231C0.431,-0.206 0.452,-0.18 0.472,-0.153C0.492,-0.126 0.51,-0.1 0.527,-0.073C0.544,-0.046 0.558,-0.022 0.569,-0L0.398,-0C0.387,-0.017 0.375,-0.037 0.362,-0.058C0.348,-0.079 0.333,-0.099 0.318,-0.121C0.303,-0.141 0.286,-0.162 0.27,-0.181C0.253,-0.2 0.236,-0.217 0.219,-0.23L0.219,-0L0.07,-0L0.07,-0.752L0.219,-0.776L0.219,-0.336Z" style="fill-rule:nonzero;"/>
            </g>
            <g transform="matrix(113.955,0,0,113.955,475.521,96.7894)">
                <path d="M0.264,-0.693C0.276,-0.671 0.29,-0.644 0.306,-0.612C0.321,-0.579 0.337,-0.544 0.355,-0.507C0.372,-0.469 0.388,-0.43 0.405,-0.391C0.422,-0.352 0.437,-0.315 0.452,-0.28C0.467,-0.315 0.482,-0.352 0.499,-0.391C0.516,-0.43 0.533,-0.469 0.55,-0.507C0.567,-0.544 0.583,-0.579 0.599,-0.612C0.614,-0.644 0.628,-0.671 0.64,-0.693L0.782,-0.693C0.789,-0.647 0.795,-0.596 0.801,-0.539C0.806,-0.482 0.811,-0.422 0.816,-0.361C0.82,-0.299 0.824,-0.237 0.828,-0.175C0.831,-0.113 0.834,-0.055 0.837,-0L0.685,-0C0.683,-0.067 0.68,-0.141 0.677,-0.22C0.674,-0.299 0.669,-0.379 0.662,-0.46C0.65,-0.432 0.637,-0.401 0.622,-0.367C0.607,-0.333 0.593,-0.299 0.579,-0.265C0.564,-0.231 0.55,-0.199 0.537,-0.168C0.524,-0.136 0.512,-0.11 0.503,-0.088L0.394,-0.088C0.385,-0.11 0.373,-0.136 0.36,-0.168C0.347,-0.199 0.333,-0.231 0.319,-0.265C0.304,-0.299 0.29,-0.333 0.275,-0.367C0.26,-0.401 0.247,-0.432 0.235,-0.46C0.228,-0.379 0.223,-0.299 0.22,-0.22C0.217,-0.141 0.214,-0.067 0.212,-0L0.06,-0C0.063,-0.055 0.066,-0.113 0.07,-0.175C0.073,-0.237 0.077,-0.299 0.082,-0.361C0.086,-0.422 0.091,-0.482 0.097,-0.539C0.102,-0.596 0.108,-0.647 0.115,-0.693L0.264,-0.693Z" style="fill-rule:nonzero;"/>
            </g>
            <g transform="matrix(113.955,0,0,113.955,577.739,96.7894)">
                <path d="M0.219,-0L0.07,-0L0.07,-0.526L0.219,-0.526L0.219,-0ZM0.233,-0.678C0.233,-0.651 0.224,-0.629 0.207,-0.614C0.189,-0.598 0.168,-0.59 0.144,-0.59C0.12,-0.59 0.099,-0.598 0.082,-0.614C0.064,-0.629 0.055,-0.651 0.055,-0.678C0.055,-0.705 0.064,-0.727 0.082,-0.743C0.099,-0.758 0.12,-0.766 0.144,-0.766C0.168,-0.766 0.189,-0.758 0.207,-0.743C0.224,-0.727 0.233,-0.705 0.233,-0.678Z" style="fill-rule:nonzero;"/>
            </g>
            <g transform="matrix(113.955,0,0,113.955,610.672,96.7894)">
                <path d="M0.197,-0.28C0.197,-0.197 0.231,-0.155 0.298,-0.155C0.313,-0.155 0.328,-0.157 0.341,-0.161C0.354,-0.165 0.366,-0.17 0.375,-0.175L0.375,-0.413C0.368,-0.414 0.359,-0.416 0.349,-0.417C0.339,-0.418 0.327,-0.418 0.314,-0.418C0.275,-0.418 0.245,-0.405 0.226,-0.379C0.207,-0.353 0.197,-0.32 0.197,-0.28ZM0.524,-0.066C0.524,0.02 0.502,0.084 0.459,0.126C0.415,0.167 0.347,0.188 0.256,0.188C0.224,0.188 0.192,0.185 0.16,0.18C0.128,0.174 0.098,0.166 0.071,0.157L0.097,0.032C0.12,0.041 0.145,0.049 0.171,0.054C0.196,0.059 0.225,0.062 0.258,0.062C0.301,0.062 0.331,0.053 0.349,0.034C0.366,0.015 0.375,-0.009 0.375,-0.038L0.375,-0.057C0.359,-0.05 0.343,-0.044 0.326,-0.041C0.309,-0.037 0.29,-0.035 0.27,-0.035C0.197,-0.035 0.142,-0.057 0.103,-0.1C0.064,-0.142 0.045,-0.203 0.045,-0.28C0.045,-0.319 0.051,-0.354 0.063,-0.386C0.075,-0.417 0.093,-0.444 0.116,-0.467C0.138,-0.49 0.167,-0.507 0.2,-0.52C0.233,-0.532 0.271,-0.538 0.313,-0.538C0.331,-0.538 0.349,-0.537 0.369,-0.536C0.388,-0.534 0.406,-0.532 0.425,-0.529C0.444,-0.526 0.462,-0.523 0.479,-0.52C0.496,-0.516 0.511,-0.512 0.524,-0.508L0.524,-0.066Z" style="fill-rule:nonzero;"/>
            </g>
            <g transform="matrix(113.955,0,0,113.955,678.361,96.7894)">
                <path d="M0.387,-0.394C0.374,-0.397 0.358,-0.401 0.34,-0.405C0.322,-0.408 0.303,-0.41 0.282,-0.41C0.273,-0.41 0.262,-0.409 0.249,-0.408C0.236,-0.406 0.226,-0.404 0.219,-0.402L0.219,-0L0.07,-0L0.07,-0.498C0.097,-0.507 0.128,-0.516 0.165,-0.525C0.201,-0.533 0.241,-0.537 0.286,-0.537C0.294,-0.537 0.304,-0.537 0.315,-0.536C0.326,-0.535 0.338,-0.533 0.349,-0.532C0.36,-0.53 0.372,-0.528 0.383,-0.526C0.394,-0.523 0.404,-0.52 0.412,-0.517L0.387,-0.394Z" style="fill-rule:nonzero;"/>
            </g>
            <g transform="matrix(113.955,0,0,113.955,725.311,96.7894)">
                <path d="M0.271,-0.104C0.286,-0.104 0.3,-0.104 0.313,-0.105C0.326,-0.106 0.337,-0.107 0.345,-0.108L0.345,-0.221C0.339,-0.222 0.33,-0.224 0.318,-0.225C0.306,-0.226 0.295,-0.227 0.285,-0.227C0.271,-0.227 0.258,-0.226 0.246,-0.225C0.233,-0.223 0.222,-0.22 0.213,-0.215C0.204,-0.21 0.196,-0.204 0.191,-0.196C0.186,-0.188 0.183,-0.178 0.183,-0.166C0.183,-0.143 0.191,-0.127 0.207,-0.118C0.222,-0.109 0.244,-0.104 0.271,-0.104ZM0.259,-0.54C0.303,-0.54 0.34,-0.535 0.369,-0.525C0.398,-0.515 0.422,-0.501 0.44,-0.482C0.457,-0.463 0.47,-0.441 0.477,-0.414C0.484,-0.387 0.488,-0.358 0.488,-0.325L0.488,-0.015C0.467,-0.01 0.437,-0.005 0.399,0.002C0.361,0.008 0.315,0.011 0.261,0.011C0.227,0.011 0.196,0.008 0.169,0.002C0.141,-0.004 0.117,-0.014 0.097,-0.028C0.077,-0.041 0.062,-0.059 0.051,-0.081C0.04,-0.103 0.035,-0.13 0.035,-0.162C0.035,-0.193 0.041,-0.219 0.054,-0.24C0.066,-0.261 0.082,-0.278 0.103,-0.291C0.124,-0.304 0.147,-0.313 0.174,-0.319C0.201,-0.324 0.228,-0.327 0.257,-0.327C0.276,-0.327 0.294,-0.326 0.309,-0.325C0.324,-0.323 0.336,-0.321 0.345,-0.318L0.345,-0.332C0.345,-0.357 0.337,-0.378 0.322,-0.393C0.307,-0.408 0.28,-0.416 0.242,-0.416C0.217,-0.416 0.192,-0.414 0.167,-0.411C0.142,-0.407 0.121,-0.402 0.103,-0.395L0.084,-0.515C0.093,-0.518 0.103,-0.521 0.117,-0.524C0.13,-0.527 0.144,-0.529 0.159,-0.532C0.174,-0.534 0.191,-0.536 0.208,-0.538C0.225,-0.539 0.242,-0.54 0.259,-0.54Z" style="fill-rule:nonzero;"/>
            </g>
            <g transform="matrix(113.955,0,0,113.955,788.328,96.7894)">
                <path d="M0.065,-0.657L0.214,-0.681L0.214,-0.526L0.393,-0.526L0.393,-0.402L0.214,-0.402L0.214,-0.217C0.214,-0.186 0.22,-0.161 0.231,-0.142C0.242,-0.123 0.264,-0.114 0.297,-0.114C0.313,-0.114 0.33,-0.116 0.347,-0.119C0.364,-0.122 0.379,-0.126 0.393,-0.131L0.414,-0.015C0.396,-0.008 0.376,-0.001 0.354,0.004C0.332,0.009 0.305,0.012 0.273,0.012C0.232,0.012 0.199,0.007 0.172,-0.005C0.145,-0.016 0.124,-0.031 0.108,-0.051C0.092,-0.07 0.081,-0.094 0.075,-0.122C0.068,-0.15 0.065,-0.181 0.065,-0.215L0.065,-0.657Z" style="fill-rule:nonzero;"/>
            </g>
            <g transform="matrix(113.955,0,0,113.955,838.924,96.7894)">
                <path d="M0.219,-0L0.07,-0L0.07,-0.526L0.219,-0.526L0.219,-0ZM0.233,-0.678C0.233,-0.651 0.224,-0.629 0.207,-0.614C0.189,-0.598 0.168,-0.59 0.144,-0.59C0.12,-0.59 0.099,-0.598 0.082,-0.614C0.064,-0.629 0.055,-0.651 0.055,-0.678C0.055,-0.705 0.064,-0.727 0.082,-0.743C0.099,-0.758 0.12,-0.766 0.144,-0.766C0.168,-0.766 0.189,-0.758 0.207,-0.743C0.224,-0.727 0.233,-0.705 0.233,-0.678Z" style="fill-rule:nonzero;"/>
            </g>
            <g transform="matrix(113.955,0,0,113.955,871.857,96.7894)">
                <path d="M0.562,-0.264C0.562,-0.223 0.556,-0.185 0.544,-0.151C0.532,-0.116 0.515,-0.087 0.492,-0.063C0.469,-0.038 0.442,-0.019 0.411,-0.006C0.379,0.007 0.343,0.014 0.304,0.014C0.265,0.014 0.23,0.007 0.199,-0.006C0.167,-0.019 0.14,-0.038 0.117,-0.063C0.094,-0.087 0.077,-0.116 0.064,-0.151C0.051,-0.185 0.045,-0.223 0.045,-0.264C0.045,-0.305 0.051,-0.343 0.065,-0.377C0.078,-0.411 0.096,-0.44 0.119,-0.464C0.141,-0.488 0.169,-0.507 0.201,-0.52C0.232,-0.533 0.267,-0.54 0.304,-0.54C0.342,-0.54 0.377,-0.533 0.409,-0.52C0.44,-0.507 0.467,-0.488 0.49,-0.464C0.513,-0.44 0.53,-0.411 0.543,-0.377C0.556,-0.343 0.562,-0.305 0.562,-0.264ZM0.41,-0.264C0.41,-0.31 0.401,-0.346 0.383,-0.373C0.364,-0.399 0.338,-0.412 0.304,-0.412C0.27,-0.412 0.244,-0.399 0.225,-0.373C0.206,-0.346 0.197,-0.31 0.197,-0.264C0.197,-0.218 0.206,-0.182 0.225,-0.155C0.244,-0.128 0.27,-0.114 0.304,-0.114C0.338,-0.114 0.364,-0.128 0.383,-0.155C0.401,-0.182 0.41,-0.218 0.41,-0.264Z" style="fill-rule:nonzero;"/>
            </g>
            <g transform="matrix(113.955,0,0,113.955,941.028,96.7894)">
                <path d="M0.07,-0.508C0.095,-0.515 0.128,-0.522 0.168,-0.529C0.208,-0.535 0.25,-0.538 0.294,-0.538C0.339,-0.538 0.376,-0.532 0.406,-0.521C0.435,-0.509 0.459,-0.492 0.476,-0.471C0.493,-0.45 0.506,-0.424 0.513,-0.395C0.52,-0.366 0.524,-0.333 0.524,-0.297L0.524,-0L0.375,-0L0.375,-0.279C0.375,-0.327 0.369,-0.361 0.356,-0.381C0.343,-0.401 0.32,-0.411 0.285,-0.411C0.274,-0.411 0.263,-0.411 0.251,-0.41C0.239,-0.409 0.228,-0.407 0.219,-0.406L0.219,-0L0.07,-0L0.07,-0.508Z" style="fill-rule:nonzero;"/>
            </g>
            <g transform="matrix(113.955,0,0,113.955,1008.15,96.7894)">
                <path d="M0.221,-0.107C0.248,-0.107 0.268,-0.11 0.279,-0.115C0.29,-0.12 0.296,-0.131 0.296,-0.146C0.296,-0.158 0.289,-0.169 0.274,-0.178C0.259,-0.187 0.237,-0.197 0.207,-0.208C0.184,-0.217 0.163,-0.226 0.144,-0.235C0.125,-0.244 0.108,-0.256 0.095,-0.269C0.082,-0.282 0.071,-0.297 0.064,-0.315C0.057,-0.333 0.053,-0.355 0.053,-0.38C0.053,-0.429 0.071,-0.468 0.108,-0.497C0.145,-0.526 0.195,-0.54 0.259,-0.54C0.291,-0.54 0.322,-0.537 0.351,-0.532C0.38,-0.526 0.404,-0.52 0.421,-0.513L0.395,-0.397C0.378,-0.403 0.359,-0.408 0.339,-0.413C0.318,-0.418 0.295,-0.42 0.27,-0.42C0.223,-0.42 0.2,-0.407 0.2,-0.381C0.2,-0.375 0.201,-0.37 0.203,-0.365C0.205,-0.36 0.209,-0.356 0.215,-0.352C0.221,-0.347 0.229,-0.343 0.24,-0.338C0.25,-0.333 0.263,-0.327 0.279,-0.321C0.312,-0.309 0.339,-0.297 0.36,-0.286C0.381,-0.274 0.398,-0.261 0.411,-0.248C0.423,-0.234 0.432,-0.219 0.437,-0.202C0.442,-0.185 0.444,-0.166 0.444,-0.144C0.444,-0.092 0.425,-0.053 0.386,-0.026C0.347,0.001 0.291,0.014 0.22,0.014C0.173,0.014 0.134,0.01 0.104,0.002C0.073,-0.006 0.051,-0.013 0.039,-0.018L0.064,-0.139C0.089,-0.129 0.115,-0.121 0.142,-0.116C0.169,-0.11 0.195,-0.107 0.221,-0.107Z" style="fill-rule:nonzero;"/>
            </g>
        </g>
        <g transform="matrix(3.91349,0,0,3.91349,94.398,84.4167)">
            <g transform="matrix(1,0,0,1,-16,-16)">
                <g>
                    <path d="M6.667,24C6.667,25.463 7.87,26.667 9.333,26.667C10.796,26.667 12,25.463 12,24C12,22.537 10.796,21.333 9.333,21.333C7.87,21.333 6.667,22.537 6.667,24M6.667,8C6.667,9.463 7.87,10.667 9.333,10.667C10.796,10.667 12,9.463 12,8C12,6.537 10.796,5.333 9.333,5.333C7.87,5.333 6.667,6.537 6.667,8M20,8C20,9.463 21.204,10.667 22.667,10.667C24.13,10.667 25.333,9.463 25.333,8C25.333,6.537 24.13,5.333 22.667,5.333C21.204,5.333 20,6.537 20,8M9.333,10.667L9.333,21.333M12,24L20,24C21.463,24 22.667,22.796 22.667,21.333L22.667,14.667" style="fill:none;fill-rule:nonzero;stroke:white;stroke-width:2.67px;"/>
                    <path d="M18.667,18.667L22.667,14.667L26.667,18.667" style="fill:none;fill-rule:nonzero;stroke:white;stroke-width:2.67px;"/>
                </g>
            </g>
        </g>
    </g>
    <g id="by-baumrock.com" serif:id="by baumrock.com" transform="matrix(0.705041,0,0,0.705041,34.4236,24.4345)">
        <g transform="matrix(62.0373,0,0,62.0373,244.399,181.255)">
            <path d="M0.407,-0.267C0.407,-0.363 0.372,-0.411 0.301,-0.411C0.286,-0.411 0.271,-0.409 0.256,-0.405C0.241,-0.401 0.228,-0.396 0.219,-0.39L0.219,-0.119C0.226,-0.118 0.236,-0.117 0.247,-0.116C0.258,-0.115 0.271,-0.114 0.284,-0.114C0.325,-0.114 0.355,-0.128 0.376,-0.156C0.397,-0.184 0.407,-0.221 0.407,-0.267ZM0.559,-0.263C0.559,-0.221 0.553,-0.183 0.541,-0.149C0.528,-0.115 0.51,-0.086 0.487,-0.062C0.464,-0.038 0.435,-0.02 0.401,-0.007C0.367,0.007 0.328,0.013 0.285,0.013C0.267,0.013 0.248,0.012 0.229,0.011C0.209,0.009 0.19,0.007 0.171,0.004C0.152,0.001 0.133,-0.002 0.116,-0.006C0.099,-0.009 0.083,-0.013 0.07,-0.017L0.07,-0.752L0.219,-0.776L0.219,-0.514C0.236,-0.521 0.253,-0.527 0.271,-0.531C0.289,-0.535 0.308,-0.537 0.329,-0.537C0.366,-0.537 0.399,-0.531 0.428,-0.518C0.457,-0.505 0.481,-0.486 0.5,-0.462C0.519,-0.438 0.534,-0.409 0.544,-0.376C0.554,-0.342 0.559,-0.304 0.559,-0.263Z" style="fill:rgb(10,19,28);fill-rule:nonzero;"/>
        </g>
        <g transform="matrix(62.0373,0,0,62.0373,281.001,181.255)">
            <path d="M0.537,-0.526C0.507,-0.425 0.476,-0.33 0.443,-0.241C0.41,-0.152 0.375,-0.066 0.336,0.017C0.322,0.047 0.308,0.073 0.294,0.094C0.28,0.115 0.265,0.132 0.248,0.146C0.231,0.159 0.213,0.169 0.192,0.176C0.171,0.182 0.146,0.185 0.118,0.185C0.095,0.185 0.073,0.183 0.054,0.179C0.034,0.174 0.018,0.169 0.005,0.164L0.031,0.045C0.046,0.05 0.06,0.054 0.072,0.056C0.084,0.058 0.097,0.059 0.11,0.059C0.137,0.059 0.157,0.052 0.172,0.038C0.186,0.023 0.198,0.003 0.208,-0.022C0.174,-0.089 0.14,-0.164 0.106,-0.247C0.072,-0.329 0.04,-0.423 0.01,-0.526L0.168,-0.526C0.175,-0.5 0.183,-0.472 0.192,-0.442C0.201,-0.411 0.21,-0.381 0.22,-0.35C0.23,-0.319 0.24,-0.288 0.251,-0.259C0.261,-0.23 0.271,-0.203 0.28,-0.179C0.289,-0.203 0.298,-0.23 0.307,-0.259C0.316,-0.288 0.326,-0.319 0.335,-0.35C0.343,-0.381 0.352,-0.411 0.361,-0.442C0.369,-0.472 0.376,-0.5 0.383,-0.526L0.537,-0.526Z" style="fill:rgb(10,19,28);fill-rule:nonzero;"/>
        </g>
        <g transform="matrix(62.0373,0,0,62.0373,329.824,181.255)">
            <path d="M0.407,-0.267C0.407,-0.363 0.372,-0.411 0.301,-0.411C0.286,-0.411 0.271,-0.409 0.256,-0.405C0.241,-0.401 0.228,-0.396 0.219,-0.39L0.219,-0.119C0.226,-0.118 0.236,-0.117 0.247,-0.116C0.258,-0.115 0.271,-0.114 0.284,-0.114C0.325,-0.114 0.355,-0.128 0.376,-0.156C0.397,-0.184 0.407,-0.221 0.407,-0.267ZM0.559,-0.263C0.559,-0.221 0.553,-0.183 0.541,-0.149C0.528,-0.115 0.51,-0.086 0.487,-0.062C0.464,-0.038 0.435,-0.02 0.401,-0.007C0.367,0.007 0.328,0.013 0.285,0.013C0.267,0.013 0.248,0.012 0.229,0.011C0.209,0.009 0.19,0.007 0.171,0.004C0.152,0.001 0.133,-0.002 0.116,-0.006C0.099,-0.009 0.083,-0.013 0.07,-0.017L0.07,-0.752L0.219,-0.776L0.219,-0.514C0.236,-0.521 0.253,-0.527 0.271,-0.531C0.289,-0.535 0.308,-0.537 0.329,-0.537C0.366,-0.537 0.399,-0.531 0.428,-0.518C0.457,-0.505 0.481,-0.486 0.5,-0.462C0.519,-0.438 0.534,-0.409 0.544,-0.376C0.554,-0.342 0.559,-0.304 0.559,-0.263Z" style="fill:rgb(10,19,28);fill-rule:nonzero;"/>
        </g>
        <g transform="matrix(62.0373,0,0,62.0373,367.295,181.255)">
            <path d="M0.271,-0.104C0.286,-0.104 0.3,-0.104 0.313,-0.105C0.326,-0.106 0.337,-0.107 0.345,-0.108L0.345,-0.221C0.339,-0.222 0.33,-0.224 0.318,-0.225C0.306,-0.226 0.295,-0.227 0.285,-0.227C0.271,-0.227 0.258,-0.226 0.246,-0.225C0.233,-0.223 0.222,-0.22 0.213,-0.215C0.204,-0.21 0.196,-0.204 0.191,-0.196C0.186,-0.188 0.183,-0.178 0.183,-0.166C0.183,-0.143 0.191,-0.127 0.207,-0.118C0.222,-0.109 0.244,-0.104 0.271,-0.104ZM0.259,-0.54C0.303,-0.54 0.34,-0.535 0.369,-0.525C0.398,-0.515 0.422,-0.501 0.44,-0.482C0.457,-0.463 0.47,-0.441 0.477,-0.414C0.484,-0.387 0.488,-0.358 0.488,-0.325L0.488,-0.015C0.467,-0.01 0.437,-0.005 0.399,0.002C0.361,0.008 0.315,0.011 0.261,0.011C0.227,0.011 0.196,0.008 0.169,0.002C0.141,-0.004 0.117,-0.014 0.097,-0.028C0.077,-0.041 0.062,-0.059 0.051,-0.081C0.04,-0.103 0.035,-0.13 0.035,-0.162C0.035,-0.193 0.041,-0.219 0.054,-0.24C0.066,-0.261 0.082,-0.278 0.103,-0.291C0.124,-0.304 0.147,-0.313 0.174,-0.319C0.201,-0.324 0.228,-0.327 0.257,-0.327C0.276,-0.327 0.294,-0.326 0.309,-0.325C0.324,-0.323 0.336,-0.321 0.345,-0.318L0.345,-0.332C0.345,-0.357 0.337,-0.378 0.322,-0.393C0.307,-0.408 0.28,-0.416 0.242,-0.416C0.217,-0.416 0.192,-0.414 0.167,-0.411C0.142,-0.407 0.121,-0.402 0.103,-0.395L0.084,-0.515C0.093,-0.518 0.103,-0.521 0.117,-0.524C0.13,-0.527 0.144,-0.529 0.159,-0.532C0.174,-0.534 0.191,-0.536 0.208,-0.538C0.225,-0.539 0.242,-0.54 0.259,-0.54Z" style="fill:rgb(10,19,28);fill-rule:nonzero;"/>
        </g>
        <g transform="matrix(62.0373,0,0,62.0373,401.601,181.255)">
            <path d="M0.519,-0.018C0.494,-0.011 0.461,-0.004 0.421,0.003C0.381,0.009 0.339,0.012 0.295,0.012C0.25,0.012 0.213,0.006 0.184,-0.006C0.154,-0.018 0.13,-0.035 0.113,-0.057C0.096,-0.078 0.083,-0.104 0.076,-0.134C0.069,-0.164 0.065,-0.197 0.065,-0.233L0.065,-0.526L0.214,-0.526L0.214,-0.251C0.214,-0.203 0.22,-0.168 0.233,-0.147C0.246,-0.126 0.269,-0.115 0.304,-0.115C0.315,-0.115 0.326,-0.116 0.338,-0.117C0.35,-0.118 0.361,-0.119 0.37,-0.12L0.37,-0.526L0.519,-0.526L0.519,-0.018Z" style="fill:rgb(10,19,28);fill-rule:nonzero;"/>
        </g>
        <g transform="matrix(62.0373,0,0,62.0373,438.141,181.255)">
            <path d="M0.359,-0.279C0.359,-0.327 0.353,-0.361 0.341,-0.381C0.328,-0.401 0.307,-0.411 0.277,-0.411C0.268,-0.411 0.258,-0.411 0.248,-0.41C0.238,-0.409 0.228,-0.407 0.219,-0.406L0.219,-0L0.07,-0L0.07,-0.508C0.083,-0.511 0.097,-0.515 0.115,-0.519C0.132,-0.522 0.15,-0.526 0.169,-0.529C0.188,-0.532 0.207,-0.534 0.227,-0.536C0.247,-0.537 0.267,-0.538 0.286,-0.538C0.324,-0.538 0.355,-0.533 0.379,-0.524C0.402,-0.514 0.422,-0.502 0.437,-0.489C0.458,-0.504 0.483,-0.516 0.511,-0.525C0.538,-0.534 0.564,-0.538 0.587,-0.538C0.629,-0.538 0.664,-0.532 0.691,-0.521C0.717,-0.509 0.739,-0.492 0.755,-0.471C0.771,-0.45 0.782,-0.424 0.788,-0.395C0.794,-0.366 0.797,-0.333 0.797,-0.297L0.797,-0L0.648,-0L0.648,-0.279C0.648,-0.327 0.642,-0.361 0.63,-0.381C0.617,-0.401 0.596,-0.411 0.566,-0.411C0.558,-0.411 0.547,-0.409 0.533,-0.405C0.518,-0.401 0.506,-0.396 0.497,-0.39C0.502,-0.375 0.505,-0.359 0.506,-0.342C0.507,-0.325 0.508,-0.306 0.508,-0.287L0.508,-0L0.359,-0L0.359,-0.279Z" style="fill:rgb(10,19,28);fill-rule:nonzero;"/>
        </g>
        <g transform="matrix(62.0373,0,0,62.0373,491.617,181.255)">
            <path d="M0.387,-0.394C0.374,-0.397 0.358,-0.401 0.34,-0.405C0.322,-0.408 0.303,-0.41 0.282,-0.41C0.273,-0.41 0.262,-0.409 0.249,-0.408C0.236,-0.406 0.226,-0.404 0.219,-0.402L0.219,-0L0.07,-0L0.07,-0.498C0.097,-0.507 0.128,-0.516 0.165,-0.525C0.201,-0.533 0.241,-0.537 0.286,-0.537C0.294,-0.537 0.304,-0.537 0.315,-0.536C0.326,-0.535 0.338,-0.533 0.349,-0.532C0.36,-0.53 0.372,-0.528 0.383,-0.526C0.394,-0.523 0.404,-0.52 0.412,-0.517L0.387,-0.394Z" style="fill:rgb(10,19,28);fill-rule:nonzero;"/>
        </g>
        <g transform="matrix(62.0373,0,0,62.0373,517.177,181.255)">
            <path d="M0.562,-0.264C0.562,-0.223 0.556,-0.185 0.544,-0.151C0.532,-0.116 0.515,-0.087 0.492,-0.063C0.469,-0.038 0.442,-0.019 0.411,-0.006C0.379,0.007 0.343,0.014 0.304,0.014C0.265,0.014 0.23,0.007 0.199,-0.006C0.167,-0.019 0.14,-0.038 0.117,-0.063C0.094,-0.087 0.077,-0.116 0.064,-0.151C0.051,-0.185 0.045,-0.223 0.045,-0.264C0.045,-0.305 0.051,-0.343 0.065,-0.377C0.078,-0.411 0.096,-0.44 0.119,-0.464C0.141,-0.488 0.169,-0.507 0.201,-0.52C0.232,-0.533 0.267,-0.54 0.304,-0.54C0.342,-0.54 0.377,-0.533 0.409,-0.52C0.44,-0.507 0.467,-0.488 0.49,-0.464C0.513,-0.44 0.53,-0.411 0.543,-0.377C0.556,-0.343 0.562,-0.305 0.562,-0.264ZM0.41,-0.264C0.41,-0.31 0.401,-0.346 0.383,-0.373C0.364,-0.399 0.338,-0.412 0.304,-0.412C0.27,-0.412 0.244,-0.399 0.225,-0.373C0.206,-0.346 0.197,-0.31 0.197,-0.264C0.197,-0.218 0.206,-0.182 0.225,-0.155C0.244,-0.128 0.27,-0.114 0.304,-0.114C0.338,-0.114 0.364,-0.128 0.383,-0.155C0.401,-0.182 0.41,-0.218 0.41,-0.264Z" style="fill:rgb(10,19,28);fill-rule:nonzero;"/>
        </g>
        <g transform="matrix(62.0373,0,0,62.0373,554.833,181.255)">
            <path d="M0.045,-0.263C0.045,-0.301 0.051,-0.337 0.064,-0.371C0.076,-0.404 0.094,-0.434 0.117,-0.459C0.14,-0.484 0.169,-0.503 0.202,-0.518C0.235,-0.533 0.273,-0.54 0.316,-0.54C0.344,-0.54 0.37,-0.538 0.393,-0.533C0.416,-0.528 0.439,-0.52 0.461,-0.511L0.43,-0.392C0.416,-0.397 0.401,-0.402 0.384,-0.406C0.367,-0.41 0.349,-0.412 0.328,-0.412C0.284,-0.412 0.251,-0.398 0.23,-0.371C0.208,-0.344 0.197,-0.308 0.197,-0.263C0.197,-0.216 0.207,-0.179 0.228,-0.153C0.248,-0.127 0.283,-0.114 0.334,-0.114C0.352,-0.114 0.371,-0.116 0.392,-0.119C0.413,-0.122 0.432,-0.128 0.449,-0.135L0.47,-0.013C0.453,-0.006 0.431,0.001 0.405,0.006C0.379,0.011 0.35,0.014 0.319,0.014C0.271,0.014 0.23,0.007 0.195,-0.008C0.16,-0.022 0.132,-0.041 0.11,-0.066C0.087,-0.091 0.071,-0.12 0.061,-0.154C0.05,-0.187 0.045,-0.224 0.045,-0.263Z" style="fill:rgb(10,19,28);fill-rule:nonzero;"/>
        </g>
        <g transform="matrix(62.0373,0,0,62.0373,585.852,181.255)">
            <path d="M0.219,-0.336C0.234,-0.352 0.249,-0.369 0.265,-0.386C0.28,-0.403 0.295,-0.421 0.31,-0.438C0.325,-0.455 0.339,-0.471 0.352,-0.486C0.365,-0.501 0.376,-0.515 0.385,-0.526L0.562,-0.526C0.527,-0.485 0.492,-0.447 0.459,-0.41C0.425,-0.373 0.388,-0.334 0.348,-0.295C0.368,-0.277 0.389,-0.256 0.41,-0.231C0.431,-0.206 0.452,-0.18 0.472,-0.153C0.492,-0.126 0.51,-0.1 0.527,-0.073C0.544,-0.046 0.558,-0.022 0.569,-0L0.398,-0C0.387,-0.017 0.375,-0.037 0.362,-0.058C0.348,-0.079 0.333,-0.099 0.318,-0.121C0.303,-0.141 0.286,-0.162 0.27,-0.181C0.253,-0.2 0.236,-0.217 0.219,-0.23L0.219,-0L0.07,-0L0.07,-0.752L0.219,-0.776L0.219,-0.336Z" style="fill:rgb(10,19,28);fill-rule:nonzero;"/>
        </g>
        <g transform="matrix(62.0373,0,0,62.0373,622.516,181.255)">
            <path d="M0.216,-0.079C0.216,-0.049 0.206,-0.026 0.188,-0.011C0.169,0.005 0.147,0.013 0.123,0.013C0.099,0.013 0.078,0.005 0.059,-0.011C0.04,-0.026 0.03,-0.049 0.03,-0.079C0.03,-0.109 0.04,-0.132 0.059,-0.148C0.078,-0.163 0.099,-0.171 0.123,-0.171C0.147,-0.171 0.169,-0.163 0.188,-0.148C0.206,-0.132 0.216,-0.109 0.216,-0.079Z" style="fill:rgb(10,19,28);fill-rule:nonzero;"/>
        </g>
        <g transform="matrix(62.0373,0,0,62.0373,635.916,181.255)">
            <path d="M0.045,-0.263C0.045,-0.301 0.051,-0.337 0.064,-0.371C0.076,-0.404 0.094,-0.434 0.117,-0.459C0.14,-0.484 0.169,-0.503 0.202,-0.518C0.235,-0.533 0.273,-0.54 0.316,-0.54C0.344,-0.54 0.37,-0.538 0.393,-0.533C0.416,-0.528 0.439,-0.52 0.461,-0.511L0.43,-0.392C0.416,-0.397 0.401,-0.402 0.384,-0.406C0.367,-0.41 0.349,-0.412 0.328,-0.412C0.284,-0.412 0.251,-0.398 0.23,-0.371C0.208,-0.344 0.197,-0.308 0.197,-0.263C0.197,-0.216 0.207,-0.179 0.228,-0.153C0.248,-0.127 0.283,-0.114 0.334,-0.114C0.352,-0.114 0.371,-0.116 0.392,-0.119C0.413,-0.122 0.432,-0.128 0.449,-0.135L0.47,-0.013C0.453,-0.006 0.431,0.001 0.405,0.006C0.379,0.011 0.35,0.014 0.319,0.014C0.271,0.014 0.23,0.007 0.195,-0.008C0.16,-0.022 0.132,-0.041 0.11,-0.066C0.087,-0.091 0.071,-0.12 0.061,-0.154C0.05,-0.187 0.045,-0.224 0.045,-0.263Z" style="fill:rgb(10,19,28);fill-rule:nonzero;"/>
        </g>
        <g transform="matrix(62.0373,0,0,62.0373,665.384,181.255)">
            <path d="M0.562,-0.264C0.562,-0.223 0.556,-0.185 0.544,-0.151C0.532,-0.116 0.515,-0.087 0.492,-0.063C0.469,-0.038 0.442,-0.019 0.411,-0.006C0.379,0.007 0.343,0.014 0.304,0.014C0.265,0.014 0.23,0.007 0.199,-0.006C0.167,-0.019 0.14,-0.038 0.117,-0.063C0.094,-0.087 0.077,-0.116 0.064,-0.151C0.051,-0.185 0.045,-0.223 0.045,-0.264C0.045,-0.305 0.051,-0.343 0.065,-0.377C0.078,-0.411 0.096,-0.44 0.119,-0.464C0.141,-0.488 0.169,-0.507 0.201,-0.52C0.232,-0.533 0.267,-0.54 0.304,-0.54C0.342,-0.54 0.377,-0.533 0.409,-0.52C0.44,-0.507 0.467,-0.488 0.49,-0.464C0.513,-0.44 0.53,-0.411 0.543,-0.377C0.556,-0.343 0.562,-0.305 0.562,-0.264ZM0.41,-0.264C0.41,-0.31 0.401,-0.346 0.383,-0.373C0.364,-0.399 0.338,-0.412 0.304,-0.412C0.27,-0.412 0.244,-0.399 0.225,-0.373C0.206,-0.346 0.197,-0.31 0.197,-0.264C0.197,-0.218 0.206,-0.182 0.225,-0.155C0.244,-0.128 0.27,-0.114 0.304,-0.114C0.338,-0.114 0.364,-0.128 0.383,-0.155C0.401,-0.182 0.41,-0.218 0.41,-0.264Z" style="fill:rgb(10,19,28);fill-rule:nonzero;"/>
        </g>
        <g transform="matrix(62.0373,0,0,62.0373,703.04,181.255)">
            <path d="M0.359,-0.279C0.359,-0.327 0.353,-0.361 0.341,-0.381C0.328,-0.401 0.307,-0.411 0.277,-0.411C0.268,-0.411 0.258,-0.411 0.248,-0.41C0.238,-0.409 0.228,-0.407 0.219,-0.406L0.219,-0L0.07,-0L0.07,-0.508C0.083,-0.511 0.097,-0.515 0.115,-0.519C0.132,-0.522 0.15,-0.526 0.169,-0.529C0.188,-0.532 0.207,-0.534 0.227,-0.536C0.247,-0.537 0.267,-0.538 0.286,-0.538C0.324,-0.538 0.355,-0.533 0.379,-0.524C0.402,-0.514 0.422,-0.502 0.437,-0.489C0.458,-0.504 0.483,-0.516 0.511,-0.525C0.538,-0.534 0.564,-0.538 0.587,-0.538C0.629,-0.538 0.664,-0.532 0.691,-0.521C0.717,-0.509 0.739,-0.492 0.755,-0.471C0.771,-0.45 0.782,-0.424 0.788,-0.395C0.794,-0.366 0.797,-0.333 0.797,-0.297L0.797,-0L0.648,-0L0.648,-0.279C0.648,-0.327 0.642,-0.361 0.63,-0.381C0.617,-0.401 0.596,-0.411 0.566,-0.411C0.558,-0.411 0.547,-0.409 0.533,-0.405C0.518,-0.401 0.506,-0.396 0.497,-0.39C0.502,-0.375 0.505,-0.359 0.506,-0.342C0.507,-0.325 0.508,-0.306 0.508,-0.287L0.508,-0L0.359,-0L0.359,-0.279Z" style="fill:rgb(10,19,28);fill-rule:nonzero;"/>
        </g>
    </g>
</svg>
